#N canvas 0 55 1536 715 12;
#X obj 717 558 rfft~;
#X obj 154 65 osc~ 440;
#N canvas 0 22 450 278 (subpatch) 0;
#X array osc 64 float 3;
#A 0 -0.995015 -0.976015 -0.943057 -0.896629 -0.837395 -0.766184 -0.684017
-0.592082 -0.491689 -0.384262 -0.271342 -0.154547 -0.0355441 0.0839685
0.202279 0.3177 0.428585 0.533338 0.630466 0.718589 0.79645 0.862916
0.917045 0.958077 0.985426 0.998674 0.997649 0.982375 0.953071 0.910128
0.854178 0.786029 0.706652 0.617162 0.518853 0.413134 0.301513 0.185575
0.0669881 -0.0525555 -0.17135 -0.287693 -0.399923 -0.506441 -0.605727
-0.696342 -0.777008 -0.846575 -0.904053 -0.948587 -0.97957 -0.996562
-0.999321 -0.98777 -0.962112 -0.922712 -0.870132 -0.805092 -0.728555
-0.641613 -0.545503 -0.441584 -0.331359 -0.216402;
#X coords 0 1 64 -1 200 140 1;
#X restore 823 28 graph;
#X obj 719 631 rifft~;
#N canvas 0 22 450 278 (subpatch) 0;
#X array result 64 float 3;
#A 0 0 0 0 0 0 0 0 0 0 0 0 0 0 0 0 0 0 0 0 0 0 0 0 0 0 0 0 0 0 0 0
0 0 0 0 0 0 0 0 0 0 0 0 0 0 0 0 0 0 0 0 0 0 0 0 0 0 0 0 0 0 0 0 0;
#X coords 0 1 64 -1 200 140 1;
#X restore 821 204 graph;
#X obj 720 668 /~ 64;
#X obj 293 100 phasor~;
#X obj 293 49 samplerate~;
#X msg 293 24 bang;
#X obj 293 75 / 64;
#X obj 212 137 expr~ $v1 < 0.5;
#X obj 280 162 expr~ $v1 >= 0.5;
#X obj 151 220 *~;
#X obj 229 220 *~;
#N canvas 0 25 450 278 (subpatch) 0;
#X array kernel 33 float 3;
#A 0 0 0 0 0 0 0 0 0 0 0 0 0 0 0 0 0 0 0 0 0 0 0 0 0 0 0 0 0 0 0 0
0 0;
#X coords 0 1 33 -1 200 100 1 0 0;
#X restore 498 55 graph;
#X obj 135 273 tabreceive~ kernel;
#N canvas 321 453 325 300 fft-convolve 0;
#X obj 18 19 inlet~ input;
#X obj 207 19 inlet~ kernel;
#X obj 78 265 outlet~;
#X obj 18 52 rfft~;
#X obj 206 54 rfft~;
#X obj 42 143 *~;
#X obj 146 176 +~;
#X obj 78 234 rifft~;
#X obj 43 175 -~;
#X obj 81 144 *~;
#X obj 145 144 *~;
#X obj 184 145 *~;
#X connect 0 0 3 0;
#X connect 1 0 4 0;
#X connect 3 0 5 0;
#X connect 3 0 11 0;
#X connect 3 1 9 0;
#X connect 3 1 10 0;
#X connect 4 0 5 1;
#X connect 4 0 10 1;
#X connect 4 1 9 1;
#X connect 4 1 11 1;
#X connect 5 0 8 0;
#X connect 6 0 7 1;
#X connect 7 0 2 0;
#X connect 8 0 7 0;
#X connect 9 0 8 1;
#X connect 10 0 6 0;
#X connect 11 0 6 1;
#X restore 22 324 pd fft-convolve;
#N canvas 321 453 325 300 fft-convolve 0;
#X obj 18 19 inlet~ input;
#X obj 207 19 inlet~ kernel;
#X obj 78 265 outlet~;
#X obj 18 52 rfft~;
#X obj 206 54 rfft~;
#X obj 42 143 *~;
#X obj 146 176 +~;
#X obj 78 234 rifft~;
#X obj 43 175 -~;
#X obj 81 144 *~;
#X obj 145 144 *~;
#X obj 184 145 *~;
#X connect 0 0 3 0;
#X connect 1 0 4 0;
#X connect 3 0 5 0;
#X connect 3 0 11 0;
#X connect 3 1 9 0;
#X connect 3 1 10 0;
#X connect 4 0 5 1;
#X connect 4 0 10 1;
#X connect 4 1 9 1;
#X connect 4 1 11 1;
#X connect 5 0 8 0;
#X connect 6 0 7 1;
#X connect 7 0 2 0;
#X connect 8 0 7 0;
#X connect 9 0 8 1;
#X connect 10 0 6 0;
#X connect 11 0 6 1;
#X restore 226 323 pd fft-convolve;
#X obj 22 357 /~ 64;
#X obj 222 353 /~ 64;
#X obj 135 414 +~;
#X obj 113 504 tabsend~ result;
#X obj 294 502 dac~;
#X obj 58 7 hsl 500 15 0 22050 0 0 empty empty empty -2 -8 0 10 -262144
-1 -1 1900 1;
#X obj 314 466 *~;
#X obj 390 385 vsl 15 128 0 1 0 0 empty empty empty 0 -9 0 10 -262144
-1 -1 0 1;
#N canvas 267 262 450 170 reset_kernel 0;
#X obj 10 12 inlet;
#X msg 11 36 \; kernel 0 -1.56147e-18 -0.00188788 2.24491e-18 0.00386248
-4.1912e-18 -0.00824247 7.10402e-18 0.0159471 -1.05399e-17 -0.0286766
1.39758e-17 0.0507186 -1.68886e-17 -0.0980159 1.88349e-17 0.315942
0.500706 0.315942 1.88349e-17 -0.0980159 -1.68886e-17 0.0507186 1.39758e-17
-0.0286766 -1.05399e-17 0.0159471 7.10402e-18 -0.00824247 -4.1912e-18
0.00386248 2.24491e-18 -0.00188788 -4.89859e-18;
#X connect 0 0 1 0;
#X restore 525 184 pd reset_kernel;
#X obj 497 187 bng 15 250 50 0 empty empty empty 17 7 0 10 -261682
-1 -1;
#X obj 588 333 tabwrite kernel;
#X floatatom 691 290 5 0 0 0 - - -;
#X obj 576 290 nbx 5 14 -1e+37 1e+37 0 0 empty empty empty 0 -8 0 10
-262144 -1 -1 0 256;
#X msg 557 230 \; kernel xlabel -1.05 32;
#X msg 596 374 \; kernel const 0;
#X obj 1061 512 partconv~ kernel 32;
#N canvas 0 22 450 278 (subpatch) 0;
#X array kernel-phase 33 float 3;
#A 0 0 0 0 0 0 0 0 0 0 0 0 0 0 0 0 0 0 0 0 0 0 0 0 0 0 0 0 0 0 0 0
0 0;
#X coords 0 4 33 -4 200 140 1 0 0;
#X restore 1113 298 graph;
#N canvas 49 79 1333 743 phase~ 0;
#X obj 19 17 inlet~ signal;
#X obj 19 325 outlet~;
#X obj 37 53 rfft~;
#X obj 78 328 snapshot~;
#N canvas 0 22 450 278 (subpatch) 0;
#X array real 33 float 5;
#A 0 0 0 0 0 0 0 0 0 0 0 0 0 0 0 0 0 0 0 0 0 0 0 0 0 0 0 0 0 0 0 0
0 0;
#X coords 0 1 32 -1 200 140 1 0 0;
#X restore 205 35 graph;
#N canvas 0 22 450 278 (subpatch) 0;
#X array phase 33 float 1;
#A 0 0 0 0 0 0 0 0 0 0 0 0 0 0 0 0 0 0 0 0 0 0 0 0 0 0 0 0 0 0 0 0
0 0;
#X coords 0 4 32 -4 200 140 1 0 0;
#X restore 323 379 graph;
#N canvas 0 22 450 278 (subpatch) 0;
#X array imaginary 33 float 5;
#A 0 0 0 0 0 0 0 0 0 0 0 0 0 0 0 0 0 0 0 0 0 0 0 0 0 0 0 0 0 0 0 0
0 0;
#X coords 0 1 32 -1 200 140 1 0 0;
#X restore 438 35 graph;
#X obj 55 135 tabsend~ imaginary;
#X obj 131 569 tabread real;
#X msg 132 540 \$1;
#X obj 159 430 until;
#X obj 154 468 f;
#X obj 196 457 + 1;
#X obj 241 456 sel 0;
#X msg 101 395 bang;
#X obj 132 639 tabwrite phase;
#X msg 264 562 \; phase const 0;
#X obj 196 483 mod 64;
#X obj 80 524 print;
#X obj 33 451 print;
#X msg 44 421 START;
#N canvas 0 22 450 278 (subpatch) 0;
#X array divided 33 float 3;
#A 0 0 0 0 -1.80396e+16 0 1.80401e+16 0 -1.80399e+16 0 1.80379e+16
0 0 2.7665e-17 0 3.00548e-17 -5.4338e+16 0 1.78214e+16 -3.5624e-16
0 -1.49078e-14 -2.79377e+13 0 1.97086e+12 0 4.51957e+10 0 -2.61987e+11
0 -2.04459e+11 3.89585e-14 -7.94261e+10 0;
#X coords 0 0.5 33 -0.5 200 140 1 0 0;
#X restore 306 206 graph;
#X obj 31 101 tabsend~ real;
#X obj 26 173 /~;
#X obj 19 209 expr~ atan($v1);
#X obj 21 255 tabsend~ phase;
#X msg 620 344 \; phase xticks 0 1 8;
#X msg 620 385 \; phase yticks 0 1.57 2;
#X msg 620 430 \; phase xlabel -4.15 0 16 32;
#X msg 618 475 \; phase ylabel -0.5 -3.14 0 3.14;
#X connect 0 0 2 0;
#X connect 2 0 22 0;
#X connect 2 0 23 1;
#X connect 2 1 7 0;
#X connect 2 1 23 0;
#X connect 8 0 15 0;
#X connect 9 0 8 0;
#X connect 10 0 11 0;
#X connect 11 0 12 0;
#X connect 11 0 9 0;
#X connect 11 0 18 0;
#X connect 12 0 17 0;
#X connect 13 0 10 1;
#X connect 14 0 10 0;
#X connect 14 0 20 0;
#X connect 17 0 11 1;
#X connect 17 0 13 0;
#X connect 20 0 19 0;
#X connect 23 0 24 0;
#X connect 24 0 25 0;
#X restore 956 426 pd phase~;
#X obj 44 164 tabsend~ osc;
#X connect 0 0 3 0;
#X connect 0 1 3 1;
#X connect 1 0 12 0;
#X connect 1 0 13 0;
#X connect 1 0 36 0;
#X connect 3 0 5 0;
#X connect 6 0 10 0;
#X connect 6 0 11 0;
#X connect 7 0 9 0;
#X connect 8 0 7 0;
#X connect 9 0 6 0;
#X connect 10 0 12 1;
#X connect 11 0 13 1;
#X connect 12 0 16 0;
#X connect 13 0 17 0;
#X connect 15 0 16 1;
#X connect 15 0 17 1;
#X connect 16 0 18 0;
#X connect 17 0 19 0;
#X connect 18 0 20 0;
#X connect 19 0 20 1;
#X connect 20 0 24 0;
#X connect 20 0 21 0;
#X connect 23 0 1 0;
#X connect 24 0 22 0;
#X connect 24 0 22 1;
#X connect 25 0 24 1;
#X connect 27 0 26 0;
#X connect 29 0 28 1;
#X connect 30 0 28 0;
