#N canvas 382 130 259 235 12;
#X obj 19 17 inlet~ signal;
#X obj 34 193 outlet~;
#X obj 37 53 rfft~;
#X obj 21 88 *~;
#X obj 68 87 *~;
#X obj 36 128 +~;
#X obj 35 162 sqrt~;
#X connect 0 0 2 0;
#X connect 2 0 3 0;
#X connect 2 0 3 1;
#X connect 2 1 4 0;
#X connect 2 1 4 1;
#X connect 3 0 5 0;
#X connect 4 0 5 1;
#X connect 5 0 6 0;
#X connect 6 0 1 0;
