#N canvas 746 183 709 497 12;
#X msg 436 294 stop;
#X msg 653 294 stop;
#X obj 325 15 inlet;
#X obj 325 39 bng 15 250 50 0 empty empty empty 17 7 0 10 -262144 -1
-1;
#X obj 492 13 inlet index;
#X msg 383 168 0 \$1;
#X msg 600 170 \$1;
#X obj 383 136 f;
#X text 54 153 SPLIT;
#X obj 600 270 tabplay~;
#X obj 600 366 tabwrite~;
#X msg 535 330 set \$1;
#X msg 81 53 symbol oscillator;
#X msg 46 79 symbol osc_part1;
#X msg 33 104 symbol osc_part2;
#X obj 62 199 cnv 15 110 18 empty empty empty 20 12 0 14 -204800 -66577
0;
#X symbolatom 64 200 15 0 0 2 input - -;
#X obj 162 269 cnv 15 110 18 empty empty empty 20 12 0 14 -204800 -66577
0;
#X obj 162 239 cnv 15 110 18 empty empty empty 20 12 0 14 -204800 -66577
0;
#X symbolatom 163 239 15 0 0 0 - - -;
#X symbolatom 163 269 15 0 0 0 - - -;
#X obj 14 11 loadbang;
#X obj 191 200 nbx 5 18 0 64 0 0 empty \$0-index-recv index 0 -8 0
12 -232576 -1 -1 32 256;
#X obj 243 96 int;
#X msg 235 47 0;
#X obj 243 124 change -1;
#X msg 511 291 start \$1;
#X obj 206 388 send;
#X obj 160 388 send;
#X msg 191 355 const 0;
#X obj 191 326 t b b;
#X msg 18 430 range \$1 \$2;
#X obj 18 406 pack 0 f;
#X obj 39 378 t b f;
#X obj 18 461 s \$0-index-recv;
#X obj 39 351 array size;
#X obj 74 324 t b s;
#X obj 63 239 cnv 15 90 18 empty \$0-part1-recv 0 -> 31 3 10 0 12
-261682 -1 0;
#X obj 63 269 cnv 15 90 18 empty \$0-part2-recv 32 -> 63 3 10 0 12
-261682 -1 0;
#X obj 144 461 s \$0-part1-recv;
#X msg 482 229 set \$1;
#X obj 383 268 tabplay~;
#X obj 383 368 tabwrite~;
#X msg 311 333 set \$1;
#X obj 144 414 - 1;
#X msg 144 437 label 0 -> \$1;
#X obj 269 413 pack f f;
#X obj 269 461 s \$0-part2-recv;
#X msg 269 437 label \$1 -> \$2;
#X obj 322 390 - 1;
#X connect 0 0 42 0;
#X connect 1 0 10 0;
#X connect 2 0 3 0;
#X connect 3 0 7 0;
#X connect 3 0 42 0;
#X connect 4 0 22 0;
#X connect 5 0 41 0;
#X connect 6 0 9 0;
#X connect 7 0 5 0;
#X connect 7 0 6 0;
#X connect 7 0 26 0;
#X connect 9 0 10 0;
#X connect 9 1 1 0;
#X connect 11 0 10 0;
#X connect 12 0 16 0;
#X connect 13 0 19 0;
#X connect 14 0 20 0;
#X connect 16 0 40 0;
#X connect 16 0 36 0;
#X connect 19 0 43 0;
#X connect 20 0 11 0;
#X connect 20 0 27 1;
#X connect 21 0 12 0;
#X connect 21 0 13 0;
#X connect 21 0 14 0;
#X connect 21 0 24 0;
#X connect 22 0 23 0;
#X connect 22 0 30 0;
#X connect 22 0 44 0;
#X connect 22 0 46 0;
#X connect 23 0 25 0;
#X connect 23 0 7 1;
#X connect 24 0 22 0;
#X connect 25 0 22 0;
#X connect 26 0 10 0;
#X connect 29 0 27 0;
#X connect 29 0 28 0;
#X connect 30 0 3 0;
#X connect 30 1 29 0;
#X connect 31 0 34 0;
#X connect 32 0 31 0;
#X connect 33 0 32 0;
#X connect 33 0 46 0;
#X connect 33 1 32 1;
#X connect 33 1 49 0;
#X connect 35 0 33 0;
#X connect 36 0 35 0;
#X connect 36 1 35 1;
#X connect 40 0 9 0;
#X connect 40 0 41 0;
#X connect 41 0 42 0;
#X connect 41 1 0 0;
#X connect 43 0 42 0;
#X connect 44 0 45 0;
#X connect 45 0 39 0;
#X connect 46 0 48 0;
#X connect 48 0 47 0;
#X connect 49 0 46 1;
#X coords 0 -1 1 1 232 150 2 50 150;
