#N canvas 33 25 650 531 12;
#X obj 101 101 cnv 15 148 148 empty empty ADSR 20 12 0 14 -162280 -1
0;
#X obj 114 162 hsl 100 15 0.01 1 0 0 \$0-attack-send \$0-attack-recv
A:0.1 3 7 0 10 -228856 -1 -1 900 1;
#X obj 114 182 hsl 100 15 0.01 1 0 0 \$0-decay-send \$0-decay-recv
D:0.4 3 7 0 10 -228856 -1 -1 3900 1;
#N canvas 909 164 450 300 send-recv 0;
#X obj 26 24 r \$0-attack-send;
#X msg 26 56 label A:\$1;
#X obj 26 88 s \$0-attack-recv;
#X obj 26 128 r \$0-sustain-send;
#X msg 26 160 label S:\$1;
#X obj 26 192 s \$0-sustain-recv;
#X obj 162 24 r \$0-decay-send;
#X msg 162 56 label D:\$1;
#X obj 162 88 s \$0-decay-recv;
#X obj 163 128 r \$0-release-send;
#X msg 163 160 label R:\$1;
#X obj 163 192 s \$0-release-recv;
#X connect 0 0 1 0;
#X connect 1 0 2 0;
#X connect 3 0 4 0;
#X connect 4 0 5 0;
#X connect 6 0 7 0;
#X connect 7 0 8 0;
#X connect 9 0 10 0;
#X connect 10 0 11 0;
#X restore 181 18 pd send-recv;
#X obj 311 470 outlet~;
#X obj 101 247 cnv 2 7 2 empty empty empty 20 12 0 14 -1 -66577 0;
#X obj 101 101 cnv 2 7 2 empty empty empty 20 12 0 14 -1 -66577 0;
#X obj 317 38 inlet MIDI;
#X obj 311 433 *~;
#X obj 111 136 nbx 5 14 1000 5000 0 0 \$0-duration-send \$0-duration-recv
Duration 0 -7 0 10 -228856 -1 -1 1000 256;
#N canvas 771 253 742 485 adsr~ 1;
#X obj 20 17 inlet velocity;
#X floatatom 20 39 5 0 0 0 - - -;
#X obj 128 16 inlet duration;
#X floatatom 128 38 5 1000 5000 0 - - -;
#X obj 240 12 inlet attack;
#X floatatom 240 34 5 0 0 0 - - -;
#X floatatom 419 32 5 0 0 0 - - -;
#X obj 419 10 inlet sustain;
#X floatatom 332 33 5 0 0 0 - - -;
#X obj 332 11 inlet decay;
#X floatatom 522 31 5 0 0 0 - - -;
#X obj 522 9 inlet release;
#X obj 20 70 sel 0;
#X msg 19 176 0;
#X obj 97 154 f;
#X obj 92 132 delay 10;
#X msg 63 177 1;
#X obj 233 94 *;
#X obj 240 70 t b f;
#X floatatom 233 121 5 0 0 0 - - -;
#X obj 325 95 *;
#X obj 332 71 t b f;
#X floatatom 325 122 5 0 0 0 - - -;
#X obj 515 89 *;
#X obj 522 65 t b f;
#X floatatom 515 116 5 0 0 0 - - -;
#X obj 97 179 / 127;
#X obj 412 95 *;
#X obj 419 71 t b f;
#X floatatom 412 122 5 0 0 0 - - -;
#X obj 96 388 line~;
#X obj 95 425 outlet~;
#X floatatom 97 211 5 0 0 0 - - -;
#X obj 178 276 pack f f;
#X obj 346 242 spigot 0;
#X obj 254 275 delay 10;
#X obj 345 276 pack f f;
#X obj 347 208 f;
#X obj 458 275 pack f f;
#X obj 178 242 t f b;
#X obj 32 290 bng 15 250 50 0 empty empty empty 17 7 0 10 -262144 -1
-1;
#X msg 5 340 80;
#X msg 50 343 1000;
#X obj 63 104 t b b b f;
#X obj 83 307 0 10;
#X obj 624 9 inlet mono_slur;
#X floatatom 624 33 5 0 0 0 - - -;
#X obj 83 266 spigot 0;
#X floatatom 598 91 5 0 0 0 - - -;
#X obj 598 67 expr ($i1 * -1) + 1;
#X connect 0 0 1 0;
#X connect 1 0 12 0;
#X connect 2 0 3 0;
#X connect 3 0 17 0;
#X connect 3 0 22 0;
#X connect 3 0 23 0;
#X connect 3 0 20 0;
#X connect 4 0 5 0;
#X connect 5 0 18 0;
#X connect 6 0 28 0;
#X connect 7 0 6 0;
#X connect 8 0 21 0;
#X connect 9 0 8 0;
#X connect 10 0 24 0;
#X connect 11 0 10 0;
#X connect 12 0 13 0;
#X connect 12 1 43 0;
#X connect 13 0 34 1;
#X connect 13 0 38 0;
#X connect 14 0 26 0;
#X connect 15 0 14 0;
#X connect 16 0 34 1;
#X connect 17 0 19 0;
#X connect 18 0 17 0;
#X connect 18 1 17 1;
#X connect 19 0 35 1;
#X connect 19 0 33 1;
#X connect 20 0 22 0;
#X connect 21 0 20 0;
#X connect 21 1 20 1;
#X connect 22 0 36 1;
#X connect 23 0 25 0;
#X connect 24 0 23 0;
#X connect 24 1 23 1;
#X connect 25 0 38 1;
#X connect 26 0 32 0;
#X connect 27 0 29 0;
#X connect 28 0 27 0;
#X connect 28 1 27 1;
#X connect 29 0 37 1;
#X connect 30 0 31 0;
#X connect 32 0 27 0;
#X connect 32 0 39 0;
#X connect 33 0 30 0;
#X connect 34 0 36 0;
#X connect 35 0 37 0;
#X connect 36 0 30 0;
#X connect 37 0 34 0;
#X connect 38 0 30 0;
#X connect 39 0 33 0;
#X connect 39 1 35 0;
#X connect 40 0 41 0;
#X connect 40 0 42 0;
#X connect 41 0 1 0;
#X connect 43 0 16 0;
#X connect 43 1 47 0;
#X connect 43 2 15 0;
#X connect 43 3 14 1;
#X connect 44 0 30 0;
#X connect 45 0 46 0;
#X connect 46 0 49 0;
#X connect 47 0 44 0;
#X connect 48 0 47 1;
#X connect 49 0 48 0;
#X restore 186 366 pd adsr~;
#X obj 114 202 hsl 100 15 0.01 1 0 0 \$0-sustain-send \$0-sustain-recv
S:0.8 3 7 0 10 -228856 -1 -1 7900 1;
#X obj 114 223 hsl 100 15 0.01 1 0 0 \$0-release-send \$0-release-recv
R:0.4 3 7 0 10 -228856 -1 -1 3900 1;
#X obj 460 37 inlet~ signal;
#X obj 242 101 cnv 2 7 2 empty empty empty 20 12 0 14 -1 -66577 0;
#X obj 20 23 loadbang;
#X msg 20 65 0.1;
#X msg 61 61 0.4;
#X msg 37 139 0.8;
#X msg 111 60 1000;
#X obj 181 135 tgl 15 0 empty empty Mono_Slur 0 -7 0 10 -232576 -1
-1 0 1;
#X msg 166 59 0;
#X obj 317 82 unpack f f f f f;
#N canvas 235 458 450 300 V 0;
#X obj 33 28 inlet;
#X obj 33 222 outlet;
#X floatatom 33 51 5 0 0 0 - - -;
#X obj 33 73 sel -1;
#X obj 73 133 delay 10;
#X obj 42 165 f;
#X floatatom 33 199 5 0 0 0 - - -;
#X obj 33 106 t f b;
#X connect 0 0 2 0;
#X connect 2 0 3 0;
#X connect 3 1 7 0;
#X connect 4 0 5 0;
#X connect 5 0 6 0;
#X connect 5 0 3 1;
#X connect 6 0 1 0;
#X connect 7 0 5 1;
#X connect 7 1 4 0;
#X restore 319 143 pd V;
#X connect 1 0 10 2;
#X connect 2 0 10 3;
#X connect 7 0 22 0;
#X connect 8 0 4 0;
#X connect 9 0 10 1;
#X connect 10 0 8 1;
#X connect 11 0 10 4;
#X connect 12 0 10 5;
#X connect 13 0 8 0;
#X connect 15 0 16 0;
#X connect 15 0 17 0;
#X connect 15 0 18 0;
#X connect 15 0 19 0;
#X connect 15 0 21 0;
#X connect 16 0 1 0;
#X connect 17 0 2 0;
#X connect 17 0 12 0;
#X connect 18 0 11 0;
#X connect 19 0 9 0;
#X connect 20 0 10 6;
#X connect 21 0 20 0;
#X connect 22 1 23 0;
#X connect 23 0 10 0;
#X coords 0 -1 1 1 150 150 2 100 100;
