#N canvas 30 39 1440 823 10;
#X obj 201 51 cnv 15 148 298 empty empty OUTPUT 5 12 0 12 -1 -191407
0;
#X obj 206 70 cnv 15 138 273 empty empty empty 20 12 0 14 -162280 -66577
0;
#X obj 271 600 *~;
#X obj 299 599 *~;
#X obj 216 234 vsl 40 101 0 1 0 0 \$0-output-send \$0-output-recv O:0.8
2 -9 0 10 -33289 -162280 -1 8000 0;
#X obj 290 536 pack f 50;
#X obj 289 566 line~;
#X obj 389 260 r \$0-output-send;
#X msg 389 287 label O:\$1;
#X obj 389 312 s \$0-output-recv;
#X obj 41 503 inlet~;
#X obj 112 492 inlet~;
#X obj 216 88 vsl 40 101 0 1 0 0 \$0-input-send \$0-input-recv I:1
2 -9 0 10 -33289 -162280 -1 10000 0;
#X obj 389 170 r \$0-input-send;
#X obj 389 222 s \$0-input-recv;
#X msg 389 197 label I:\$1;
#X obj 405 18 loadbang;
#X msg 405 44 1;
#X msg 442 44 0.8;
#X msg 483 41 \; pd dsp 1 \;;
#X obj 45 693 writesf~ 2;
#X obj 43 581 *~;
#X obj 113 588 *~;
#X obj 132 530 pack f 50;
#X obj 132 561 line~;
#X obj 27 404 savepanel;
#X msg 27 454 open \$1;
#X obj 217 199 tgl 15 0 empty empty R 5 8 0 10 -258113 -1 -86277 0
1;
#X obj 29 338 sel 1 0;
#X msg 90 465 start;
#X obj 27 428 t s b;
#X obj 90 443 delay 10;
#X msg 157 440 stop;
#X obj 241 199 tgl 15 0 empty empty M 5 8 0 10 -257985 -1 -83269 0
1;
#X obj 245 543 f;
#X obj 229 474 sel 1 0;
#X msg 229 502 0;
#X obj 266 512 sel 0;
#X obj 265 93 cnv 15 73 99 empty empty empty 20 12 0 14 -191407 -66577
0;
#X obj 263 234 cnv 15 73 99 empty empty empty 20 12 0 14 -191407 -66577
0;
#N canvas 0 50 450 250 (subpatch) 0;
#X array \$0-left 100 float 5;
#A 0 0 0 0 0 0 0 0 0 0 0 0 0 0 0 0 0 0 0 0 0 0 0 0 0 0 0 0 0 0 0 0
0 0 0 0 0 0 0 0 0 0 0 0 0 0 0 0 0 0 0 0 0 0 0 0 0 0 0 0 0 0 0 0 0 0
0 0 0 0 0 0 0 0 0 0 0 0 0 0 0 0 0 0 0 0 0 0 0 0 0 0 0 0 0 0 0 0 0 0
0;
#X coords 0 1 100 -1 75 101 1 0 0;
#X restore 264 91 graph;
#N canvas 0 50 450 250 (subpatch) 0;
#X array \$0-right 100 float 5;
#A 0 0 0 0 0 0 0 0 0 0 0 0 0 0 0 0 0 0 0 0 0 0 0 0 0 0 0 0 0 0 0 0
0 0 0 0 0 0 0 0 0 0 0 0 0 0 0 0 0 0 0 0 0 0 0 0 0 0 0 0 0 0 0 0 0 0
0 0 0 0 0 0 0 0 0 0 0 0 0 0 0 0 0 0 0 0 0 0 0 0 0 0 0 0 0 0 0 0 0 0
0;
#X coords 0 1 100 -1 75 101 1 0 0;
#X restore 262 234 graph;
#X obj 246 716 metro 100;
#X obj 356 718 metro 100;
#X obj 266 199 tgl 15 0 empty empty Display 17 8 0 10 -191407 -1 -1
1 1;
#X obj 356 740 tabwrite~ \$0-right;
#X obj 246 738 tabwrite~ \$0-left;
#X obj 28 380 symbol;
#X msg 31 358 audio;
#X obj 272 627 dac~;
#X connect 2 0 49 0;
#X connect 3 0 49 1;
#X connect 4 0 5 0;
#X connect 4 0 37 0;
#X connect 5 0 6 0;
#X connect 6 0 3 1;
#X connect 6 0 2 1;
#X connect 7 0 8 0;
#X connect 8 0 9 0;
#X connect 10 0 21 0;
#X connect 11 0 22 0;
#X connect 12 0 23 0;
#X connect 13 0 15 0;
#X connect 15 0 14 0;
#X connect 16 0 17 0;
#X connect 16 0 18 0;
#X connect 16 0 19 0;
#X connect 17 0 12 0;
#X connect 17 0 44 0;
#X connect 18 0 4 0;
#X connect 21 0 2 0;
#X connect 21 0 20 0;
#X connect 21 0 46 0;
#X connect 22 0 3 0;
#X connect 22 0 20 1;
#X connect 22 0 45 0;
#X connect 23 0 24 0;
#X connect 24 0 22 1;
#X connect 24 0 21 1;
#X connect 25 0 30 0;
#X connect 26 0 20 0;
#X connect 27 0 28 0;
#X connect 28 0 48 0;
#X connect 28 1 32 0;
#X connect 29 0 20 0;
#X connect 30 0 26 0;
#X connect 30 1 31 0;
#X connect 31 0 29 0;
#X connect 32 0 20 0;
#X connect 33 0 35 0;
#X connect 34 0 4 0;
#X connect 35 0 36 0;
#X connect 35 1 34 0;
#X connect 36 0 4 0;
#X connect 37 1 34 1;
#X connect 42 0 46 0;
#X connect 43 0 45 0;
#X connect 44 0 43 0;
#X connect 44 0 42 0;
#X connect 47 0 25 0;
#X connect 48 0 47 0;
#X coords 0 857 1 856 150 300 2 200 50;
