#N canvas 86 262 1018 544 12;
#X obj 101 101 cnv 15 298 148 empty empty MIDI_IN 20 12 0 14 -162280
-1 0;
#X obj 114 142 hsl 128 15 0 127 0 0 \$0-note-send \$0-note-recv Note:60
3 8 0 10 -228856 -1 -1 6000 1;
#X obj 114 168 hsl 128 15 0 127 0 0 \$0-velocity-send \$0-velocity-recv
Velocity:0 3 8 0 10 -228856 -1 -1 0 1;
#X obj 277 117 vsl 15 128 0 16383 0 0 \$0-pbend-send \$0-pbend-recv
PB:8192 0 -9 0 10 -228856 -1 -1 6350 1;
#X obj 352 117 vsl 15 128 0 127 0 0 \$0-mod-send \$0-mod-recv Mod:0
0 -9 0 10 -228856 -1 -1 0 1;
#N canvas 818 236 583 413 send-recieve 0;
#X obj 18 17 r \$0-note-send;
#X msg 18 46 label Note:\$1;
#X obj 18 76 s \$0-note-recv;
#X obj 137 17 r \$0-velocity-send;
#X obj 137 76 s \$0-velocity-recv;
#X msg 137 46 label Velocity:\$1;
#X obj 412 17 r \$0-mod-send;
#X msg 412 46 label Mod:\$1;
#X obj 412 76 s \$0-mod-recv;
#X obj 284 17 r \$0-pbend-send;
#X msg 284 46 label PB:\$1;
#X obj 284 76 s \$0-pbend-recv;
#X connect 0 0 1 0;
#X connect 1 0 2 0;
#X connect 3 0 5 0;
#X connect 5 0 4 0;
#X connect 6 0 7 0;
#X connect 7 0 8 0;
#X connect 9 0 10 0;
#X connect 10 0 11 0;
#X restore 31 55 pd send-recieve;
#X floatatom 430 147 5 0 0 2 Note - -;
#X floatatom 556 147 5 0 0 2 Channel - -;
#X floatatom 487 147 5 0 0 2 Velocity - -;
#X obj 209 119 nbx 2 14 1 16 0 0 empty empty Channel 0 -8 0 10 -228856
-1 -1 1 256;
#X obj 556 190 sel 1;
#X msg 556 275 1;
#X floatatom 598 219 5 0 0 0 - - -;
#X obj 598 246 t b;
#X msg 598 275 0;
#X obj 430 323 spigot 1;
#X obj 498 323 spigot 1;
#X obj 209 30 loadbang;
#X obj 111 391 outlet;
#X obj 101 247 cnv 2 7 2 empty empty empty 20 12 0 14 -1 -66577 0;
#X obj 130 285 t b f;
#X obj 181 285 t b f;
#X obj 232 285 t b f;
#X floatatom 662 147 5 0 0 2 Value - -;
#X floatatom 715 147 5 0 0 2 Channel - -;
#X obj 715 190 sel 1;
#X msg 715 275 1;
#X floatatom 757 219 5 0 0 0 - - -;
#X obj 757 246 t b;
#X msg 757 275 0;
#X obj 662 323 spigot 1;
#X obj 672 100 bendin;
#X floatatom 818 147 5 0 0 2 Value - -;
#X floatatom 871 147 5 0 0 2 Channel - -;
#X obj 871 190 sel 1;
#X msg 871 275 1;
#X floatatom 913 219 5 0 0 0 - - -;
#X obj 913 246 t b;
#X msg 913 275 0;
#X obj 818 323 spigot 1;
#X msg 277 64 8192;
#X obj 822 100 ctlin 1;
#N canvas 0 25 720 780 notein_monophonic 0;
#X obj 33 43 notein;
#X obj 33 129 stripnote;
#X obj 149 94 t b f;
#X obj 149 128 f;
#X obj 149 160 sel 0;
#X obj 33 297 outlet;
#X obj 149 193 f;
#X obj 149 226 sel -1;
#X msg 149 258 0;
#X obj 149 297 outlet;
#X obj 207 297 outlet;
#X connect 0 0 1 0;
#X connect 0 0 2 0;
#X connect 0 1 3 1;
#X connect 0 1 1 1;
#X connect 0 2 10 0;
#X connect 1 0 5 0;
#X connect 1 0 7 1;
#X connect 2 0 3 0;
#X connect 2 1 6 1;
#X connect 3 0 4 0;
#X connect 4 0 6 0;
#X connect 4 1 9 0;
#X connect 6 0 7 0;
#X connect 7 0 8 0;
#X connect 8 0 9 0;
#X restore 422 92 pd notein_monophonic;
#X obj 298 175 nbx 2 14 1 24 0 0 empty empty Limit 0 -8 0 10 -228856
-1 -1 4 256;
#X msg 233 64 12;
#X obj 111 353 pack f f f f f;
#X obj 283 285 t b f;
#X obj 298 232 bng 15 250 50 0 empty empty Reset 0 -7 0 10 -204786
-45076 -1;
#X obj 379 382 f;
#X obj 306 382 delay 10;
#X floatatom 350 491 5 0 0 0 - - -;
#X obj 350 462 line;
#X msg 306 409 8192 50;
#X connect 1 0 45 0;
#X connect 2 0 20 0;
#X connect 3 0 21 0;
#X connect 3 0 48 1;
#X connect 4 0 46 0;
#X connect 6 0 15 0;
#X connect 7 0 10 0;
#X connect 8 0 16 0;
#X connect 9 0 10 1;
#X connect 9 0 25 1;
#X connect 9 0 34 1;
#X connect 10 0 11 0;
#X connect 10 1 12 0;
#X connect 11 0 15 1;
#X connect 11 0 16 1;
#X connect 12 0 13 0;
#X connect 13 0 14 0;
#X connect 14 0 15 1;
#X connect 14 0 16 1;
#X connect 15 0 1 0;
#X connect 16 0 2 0;
#X connect 17 0 9 0;
#X connect 17 0 40 0;
#X connect 17 0 44 0;
#X connect 20 0 45 0;
#X connect 20 1 45 1;
#X connect 21 0 45 0;
#X connect 21 1 45 2;
#X connect 22 0 45 0;
#X connect 22 1 45 3;
#X connect 23 0 30 0;
#X connect 24 0 25 0;
#X connect 25 0 26 0;
#X connect 25 1 27 0;
#X connect 26 0 30 1;
#X connect 27 0 28 0;
#X connect 28 0 29 0;
#X connect 29 0 30 1;
#X connect 30 0 3 0;
#X connect 31 0 23 0;
#X connect 31 1 24 0;
#X connect 32 0 39 0;
#X connect 33 0 34 0;
#X connect 34 0 35 0;
#X connect 34 1 36 0;
#X connect 35 0 39 1;
#X connect 36 0 37 0;
#X connect 37 0 38 0;
#X connect 38 0 39 1;
#X connect 39 0 4 0;
#X connect 40 0 3 0;
#X connect 41 0 32 0;
#X connect 41 1 33 0;
#X connect 42 0 6 0;
#X connect 42 1 8 0;
#X connect 42 2 7 0;
#X connect 43 0 22 0;
#X connect 44 0 43 0;
#X connect 45 0 18 0;
#X connect 46 0 45 0;
#X connect 46 1 45 4;
#X connect 47 0 48 0;
#X connect 47 0 49 0;
#X connect 48 0 51 0;
#X connect 49 0 52 0;
#X connect 50 0 3 0;
#X connect 51 0 50 0;
#X connect 52 0 51 0;
#X coords 0 -1 1 1 300 150 2 100 100;
