#N canvas 12 53 841 734 12;
#X obj 101 101 cnv 15 148 148 empty empty OSC_4 20 12 0 14 -162280
-1 0;
#X obj 317 38 inlet;
#N canvas 0 22 450 278 (subpatch) 0;
#X array \$0-vu 221 float 3;
#A 0 1 1 1 1 1 1 1 1 1 1 1 1 1 1 1 1 1 1 1 1 1 1 1 1 1 1 1 1 1 1 1
1 1 1 1 1 1 1 1 1 1 1 1 1 1 1 1 1 1 1 1 1 1 1 1 1 1 1 1 1 1 1 1 1 1
1 1 1 1 1 1 1 1 1 1 1 1 1 1 1 1 1 1 1 1 1 1 1 1 1 1 1 1 1 1 1 1 1 1
1 1 1 1 1 1 1 1 1 1 1 1 1 1 1 1 1 1 1 1 1 1 1 1 1 1 1 1 1 1 1 1 1 1
1 1 1 1 1 1 1 1 1 1 1 1 1 1 1 1 1 1 1 1 1 1 1 1 1 1 1 1 1 1 1 1 1 1
1 1 1 1 1 1 1 1 1 1 1 1 1 1 1 1 1 1 1 1 1 1 1 1 1 1 1 1 1 1 1 1 1 1
1 1 1 1 1 1 1 1 1 1 1 1 1 1 1 1 1 1 1 1;
#X coords 0 1 221 -1 50 50 1 0 0;
#X restore 136 142 graph;
#X obj 136 143 cnv 15 49 48 empty empty empty 20 12 0 14 -228856 -66577
0;
#X obj 111 137 vradio 15 1 0 4 \$0-wave-send \$0-wave-recv SIN 0 -8
0 10 -228856 -1 -1 0;
#X obj 247 443 metro 100;
#X obj 247 414 tgl 15 0 empty empty empty 17 7 0 10 -262144 -1 -1 1
1;
#X obj 187 379 *~ 1;
#X obj 113 206 hsl 101 15 0 1 0 0 \$0-phase-send \$0-phase-recv Phase:0
3 7 0 10 -228856 -1 -1 0 1;
#X obj 114 228 hsl 100 15 0.01 1 0 0 \$0-pwm-send \$0-pwm-recv PWM:0.5
3 7 0 10 -228856 -1 -1 4900 1;
#N canvas 886 166 450 300 send-recv 0;
#X obj 26 24 r \$0-pwm-send;
#X obj 26 88 s \$0-pwm-recv;
#X msg 26 56 label PWM:\$1;
#X obj 141 24 r \$0-phase-send;
#X msg 141 56 label Phase:\$1;
#X obj 141 88 s \$0-phase-recv;
#X connect 0 0 2 0;
#X connect 2 0 1 0;
#X connect 3 0 4 0;
#X connect 4 0 5 0;
#X restore 372 38 pd send-recv;
#X obj 30 18 loadbang;
#X msg 30 67 0.5;
#X obj 187 519 outlet~;
#X obj 101 247 cnv 2 7 2 empty empty empty 20 12 0 14 -1 -66577 0;
#X obj 101 101 cnv 2 7 2 empty empty empty 20 12 0 14 -1 -66577 0;
#X msg 66 67 0;
#N canvas 33 270 982 644 oscillator_selector 1;
#N canvas 552 162 589 513 sine 0;
#X obj 59 110 osc~;
#X obj 59 147 outlet~;
#X floatatom 155 66 5 0 0 0 - - -;
#X obj 155 34 inlet phase;
#X obj 59 34 inlet~;
#X connect 0 0 1 0;
#X connect 2 0 0 1;
#X connect 3 0 2 0;
#X connect 4 0 0 0;
#X restore 412 236 pd sine;
#N canvas 231 248 589 513 triangle 0;
#X obj 59 320 outlet~;
#X floatatom 155 66 5 0 0 0 - - -;
#X obj 155 34 inlet phase;
#X obj 59 114 phasor~;
#X obj 59 144 expr~ $v1 * -1 + 1;
#X obj 59 183 clip~ 0 0.5;
#X obj 126 114 phasor~;
#X obj 148 183 clip~ 0 0.5;
#X obj 59 227 +~;
#X obj 59 263 expr~ ($v1 - 0.75) * 4;
#X obj 59 34 inlet~;
#X connect 1 0 3 1;
#X connect 1 0 6 1;
#X connect 2 0 1 0;
#X connect 3 0 4 0;
#X connect 4 0 5 0;
#X connect 5 0 8 0;
#X connect 6 0 7 0;
#X connect 7 0 8 1;
#X connect 8 0 9 0;
#X connect 9 0 0 0;
#X connect 10 0 3 0;
#X connect 10 0 6 0;
#X restore 503 236 pd triangle;
#N canvas 599 118 719 513 pulse 0;
#X obj 59 243 outlet~;
#X floatatom 155 66 5 0 0 0 - - -;
#X obj 155 34 inlet phase;
#X obj 59 133 phasor~;
#X floatatom 255 66 5 0 0 0 - - -;
#X obj 255 124 line~;
#X obj 255 95 pack f 50;
#X obj 59 213 expr~ $v1 * 2 - 1;
#X obj 255 34 inlet pwm;
#X obj 59 176 expr~ $v1 > $v2;
#X obj 59 34 inlet~;
#X connect 1 0 3 1;
#X connect 2 0 1 0;
#X connect 3 0 9 0;
#X connect 4 0 6 0;
#X connect 5 0 9 1;
#X connect 6 0 5 0;
#X connect 7 0 0 0;
#X connect 8 0 4 0;
#X connect 9 0 7 0;
#X connect 10 0 3 0;
#X restore 595 236 pd pulse;
#N canvas 69 137 589 513 sawtooth 0;
#X obj 59 213 outlet~;
#X floatatom 155 66 5 0 0 0 - - -;
#X obj 155 34 inlet phase;
#X obj 59 107 phasor~;
#X obj 59 140 *~ -2;
#X obj 59 177 +~ 1;
#X obj 59 34 inlet~;
#X connect 1 0 3 1;
#X connect 2 0 1 0;
#X connect 3 0 4 0;
#X connect 4 0 5 0;
#X connect 5 0 0 0;
#X connect 6 0 3 0;
#X restore 687 236 pd sawtooth;
#X obj 430 307 pack f 50;
#X obj 430 331 line~;
#X obj 412 358 *~;
#X obj 521 307 pack f 50;
#X obj 521 331 line~;
#X obj 503 358 *~;
#X obj 613 307 pack f 50;
#X obj 613 331 line~;
#X obj 595 358 *~;
#X obj 705 307 pack f 50;
#X obj 705 331 line~;
#X obj 687 358 *~;
#X msg 24 438 1;
#X msg 24 464 0;
#X msg 24 489 0;
#X msg 24 514 0;
#X msg 114 489 0;
#X msg 114 514 0;
#X msg 202 464 0;
#X msg 202 514 0;
#X msg 292 464 0;
#X msg 292 489 0;
#X msg 114 438 0;
#X msg 114 464 1;
#X msg 202 489 1;
#X msg 292 514 1;
#X msg 202 438 0;
#X msg 292 438 0;
#X obj 24 313 sel 0 1 2 3;
#X obj 24 378 t b b b b;
#X obj 114 378 t b b b b;
#X obj 202 378 t b b b b;
#X obj 292 378 t b b b b;
#X msg 98 544 label TRI;
#X msg 6 544 label SIN;
#X msg 190 544 label PLS;
#X msg 282 544 label SAW;
#X obj 119 608 s \$0-wave-recv;
#X obj 412 494 outlet~;
#X obj 24 29 inlet wave;
#X obj 131 29 inlet note;
#X obj 700 29 inlet phase;
#X obj 791 29 inlet pwm;
#X obj 485 29 inlet pbend;
#X obj 580 29 inlet pb_limit;
#X floatatom 131 53 5 0 0 0 - - -;
#X floatatom 485 53 9 0 0 0 - - -;
#X floatatom 580 53 5 0 0 0 - - -;
#X floatatom 791 53 5 0 0 0 - - -;
#X floatatom 700 53 5 0 0 0 - - -;
#X obj 213 29 inlet octave;
#X obj 309 29 inlet semi;
#X obj 393 29 inlet cents;
#X floatatom 213 53 5 0 0 0 - - -;
#X floatatom 309 53 5 0 0 0 - - -;
#X floatatom 393 53 5 0 0 0 - - -;
#N canvas 176 39 810 801 pitch_bending_and_detuning 0;
#X obj 32 24 inlet note;
#X obj 496 25 inlet pbend;
#X obj 717 25 inlet limit;
#X floatatom 32 49 5 0 0 0 - - -;
#X floatatom 496 49 9 0 0 0 - - -;
#X floatatom 717 49 5 0 0 0 - - -;
#X obj 32 313 mtof;
#X floatatom 32 337 7 0 0 0 - - -;
#X obj 496 92 - 8192;
#X floatatom 496 116 9 0 0 0 - - -;
#X obj 496 148 moses 0;
#X floatatom 422 194 9 0 0 0 - - -;
#X obj 422 218 / 8192;
#X floatatom 422 241 11 0 0 0 - - -;
#X floatatom 542 196 9 0 0 0 - - -;
#X obj 422 284 t b f;
#X obj 542 285 t b f;
#X obj 32 588 outlet;
#X floatatom 32 554 9 0 0 0 - - -;
#X obj 32 502 expr $f1 * pow(2 \, $f2);
#X obj 717 93 / 12;
#X floatatom 717 117 5 0 0 0 - - -;
#X obj 542 360 *;
#X obj 542 219 / 8191;
#X floatatom 542 242 11 0 0 0 - - -;
#X obj 151 454 t b f;
#X text 269 463 pb >= 8192: freq2 = freq1 * pow(2 \, (pb_lim / 12)
* (pb - 8192 / 8191);
#X text 269 546 pb < 8192: freq2 = freq1 * pow(2 \, (pb_lim / 12) *
(pb - 8192 / 8192);
#X obj 131 24 inlet octave;
#X obj 245 24 inlet semi;
#X obj 357 24 inlet cents;
#X floatatom 131 48 5 0 0 0 - - -;
#X floatatom 245 48 5 0 0 0 - - -;
#X floatatom 357 48 5 0 0 0 - - -;
#X obj 131 81 * 12;
#X obj 245 81 t b f;
#X obj 131 128 +;
#X obj 32 252 +;
#X floatatom 32 276 5 0 0 0 - - -;
#X obj 131 192 t b f;
#X floatatom 131 162 5 0 0 0 - - -;
#X text 268 615 cents: f2 = f1 * pow(2 \, cents / 1200);
#X floatatom 32 414 7 0 0 0 - - -;
#X obj 357 91 / 1200;
#X floatatom 357 115 13 0 0 0 - - -;
#X obj 357 148 t b f;
#X obj 32 390 expr $f1 * pow(2 \, $f2);
#X connect 0 0 3 0;
#X connect 1 0 4 0;
#X connect 2 0 5 0;
#X connect 3 0 37 0;
#X connect 4 0 8 0;
#X connect 5 0 20 0;
#X connect 6 0 7 0;
#X connect 7 0 46 0;
#X connect 8 0 9 0;
#X connect 9 0 10 0;
#X connect 10 0 11 0;
#X connect 10 1 14 0;
#X connect 11 0 12 0;
#X connect 12 0 13 0;
#X connect 13 0 15 0;
#X connect 14 0 23 0;
#X connect 15 0 22 0;
#X connect 15 1 22 1;
#X connect 16 0 22 0;
#X connect 16 1 22 1;
#X connect 18 0 17 0;
#X connect 19 0 18 0;
#X connect 20 0 21 0;
#X connect 21 0 22 0;
#X connect 22 0 25 0;
#X connect 23 0 24 0;
#X connect 24 0 16 0;
#X connect 25 0 19 0;
#X connect 25 1 19 1;
#X connect 28 0 31 0;
#X connect 29 0 32 0;
#X connect 30 0 33 0;
#X connect 31 0 34 0;
#X connect 32 0 35 0;
#X connect 33 0 43 0;
#X connect 34 0 36 0;
#X connect 35 0 36 0;
#X connect 35 1 36 1;
#X connect 36 0 40 0;
#X connect 37 0 38 0;
#X connect 38 0 6 0;
#X connect 39 0 37 0;
#X connect 39 1 37 1;
#X connect 40 0 39 0;
#X connect 42 0 19 0;
#X connect 43 0 44 0;
#X connect 44 0 45 0;
#X connect 45 0 46 0;
#X connect 45 1 46 1;
#X connect 46 0 42 0;
#X restore 229 93 pd pitch_bending_and_detuning;
#X obj 496 494 outlet;
#X obj 320 155 line~;
#X obj 320 179 +~;
#X obj 879 29 inlet~ FM;
#X obj 320 129 pack f 25;
#X connect 0 0 6 0;
#X connect 1 0 9 0;
#X connect 2 0 12 0;
#X connect 3 0 15 0;
#X connect 4 0 5 0;
#X connect 5 0 6 1;
#X connect 6 0 42 0;
#X connect 7 0 8 0;
#X connect 8 0 9 1;
#X connect 9 0 42 0;
#X connect 10 0 11 0;
#X connect 11 0 12 1;
#X connect 12 0 42 0;
#X connect 13 0 14 0;
#X connect 14 0 15 1;
#X connect 15 0 42 0;
#X connect 16 0 4 0;
#X connect 17 0 7 0;
#X connect 18 0 10 0;
#X connect 19 0 13 0;
#X connect 20 0 10 0;
#X connect 21 0 13 0;
#X connect 22 0 7 0;
#X connect 23 0 13 0;
#X connect 24 0 7 0;
#X connect 25 0 10 0;
#X connect 26 0 4 0;
#X connect 27 0 7 0;
#X connect 28 0 10 0;
#X connect 29 0 13 0;
#X connect 30 0 4 0;
#X connect 31 0 4 0;
#X connect 32 0 33 0;
#X connect 32 0 38 0;
#X connect 32 1 34 0;
#X connect 32 1 37 0;
#X connect 32 2 35 0;
#X connect 32 2 39 0;
#X connect 32 3 36 0;
#X connect 32 3 40 0;
#X connect 33 0 16 0;
#X connect 33 1 17 0;
#X connect 33 2 18 0;
#X connect 33 3 19 0;
#X connect 34 0 26 0;
#X connect 34 1 27 0;
#X connect 34 2 20 0;
#X connect 34 3 21 0;
#X connect 35 0 30 0;
#X connect 35 1 22 0;
#X connect 35 2 28 0;
#X connect 35 3 23 0;
#X connect 36 0 31 0;
#X connect 36 1 24 0;
#X connect 36 2 25 0;
#X connect 36 3 29 0;
#X connect 37 0 41 0;
#X connect 38 0 41 0;
#X connect 39 0 41 0;
#X connect 40 0 41 0;
#X connect 43 0 32 0;
#X connect 44 0 49 0;
#X connect 45 0 53 0;
#X connect 46 0 52 0;
#X connect 47 0 50 0;
#X connect 48 0 51 0;
#X connect 49 0 60 0;
#X connect 50 0 60 4;
#X connect 51 0 60 5;
#X connect 52 0 2 2;
#X connect 53 0 0 1;
#X connect 53 0 1 1;
#X connect 53 0 2 1;
#X connect 53 0 3 1;
#X connect 54 0 57 0;
#X connect 55 0 58 0;
#X connect 56 0 59 0;
#X connect 57 0 60 1;
#X connect 58 0 60 2;
#X connect 59 0 60 3;
#X connect 60 0 61 0;
#X connect 60 0 65 0;
#X connect 62 0 63 0;
#X connect 63 0 0 0;
#X connect 63 0 1 0;
#X connect 63 0 2 0;
#X connect 63 0 3 0;
#X connect 64 0 63 1;
#X connect 65 0 62 0;
#X restore 187 332 pd oscillator_selector;
#X msg 7 108 1;
#X obj 317 82 unpack f f f f f;
#N canvas 767 201 450 643 V 0;
#X obj 33 28 inlet;
#X obj 33 222 outlet;
#X floatatom 33 51 5 0 0 0 - - -;
#X obj 33 73 sel -1;
#X obj 73 133 delay 10;
#X obj 42 165 f;
#X floatatom 33 199 5 0 0 0 - - -;
#X obj 33 106 t f b;
#X connect 0 0 2 0;
#X connect 2 0 3 0;
#X connect 3 1 7 0;
#X connect 4 0 5 0;
#X connect 5 0 6 0;
#X connect 5 0 3 1;
#X connect 6 0 1 0;
#X connect 7 0 5 1;
#X connect 7 1 4 0;
#X restore 309 142 pd V;
#N canvas 767 201 450 643 V 0;
#X obj 33 28 inlet;
#X obj 33 222 outlet;
#X floatatom 33 51 9 0 0 0 - - -;
#X obj 33 73 sel -1;
#X obj 73 133 delay 10;
#X obj 42 165 f;
#X floatatom 33 199 9 0 0 0 - - -;
#X obj 33 106 t f b;
#X connect 0 0 2 0;
#X connect 2 0 3 0;
#X connect 3 1 7 0;
#X connect 4 0 5 0;
#X connect 5 0 6 0;
#X connect 5 0 3 1;
#X connect 6 0 1 0;
#X connect 7 0 5 1;
#X connect 7 1 4 0;
#X restore 354 142 pd V;
#N canvas 932 137 450 643 V 0;
#X obj 33 28 inlet;
#X obj 33 222 outlet;
#X floatatom 33 51 5 0 0 0 - - -;
#X obj 33 73 sel -1;
#X obj 73 133 delay 10;
#X obj 42 165 f;
#X floatatom 33 199 5 0 0 0 - - -;
#X obj 33 106 t f b;
#X connect 0 0 2 0;
#X connect 2 0 3 0;
#X connect 3 1 7 0;
#X connect 4 0 5 0;
#X connect 5 0 6 0;
#X connect 5 0 3 1;
#X connect 6 0 1 0;
#X connect 7 0 5 1;
#X connect 7 1 4 0;
#X restore 398 142 pd V;
#X obj 191 126 nbx 2 18 -4 4 0 0 empty empty Oct 32 9 0 10 -204800
-1 -1 0 256;
#X obj 247 479 tabwrite~ \$0-vu;
#X obj 191 153 nbx 2 18 -12 12 0 0 empty empty Semi 32 9 0 10 -261234
-1 -1 0 256;
#X obj 191 183 nbx 3 14 -100 100 0 0 empty empty Cent 32 7 0 8 -204786
-1 -1 0 256;
#X obj 223 228 tgl 15 0 empty empty Mod? 0 -7 0 10 -232576 -1 -1 0
1;
#X obj 455 150 / 127;
#X obj 455 181 sel 0 1;
#X msg 455 218 0.01;
#X msg 500 218 0.99;
#X floatatom 455 261 5 0 0 0 - - -;
#X obj 455 293 spigot 0;
#N canvas 932 137 450 643 V 0;
#X obj 33 28 inlet;
#X obj 33 222 outlet;
#X floatatom 33 51 5 0 0 0 - - -;
#X obj 33 73 sel -1;
#X obj 73 133 delay 10;
#X obj 42 165 f;
#X floatatom 33 199 5 0 0 0 - - -;
#X obj 33 106 t f b;
#X connect 0 0 2 0;
#X connect 2 0 3 0;
#X connect 3 1 7 0;
#X connect 4 0 5 0;
#X connect 5 0 6 0;
#X connect 5 0 3 1;
#X connect 6 0 1 0;
#X connect 7 0 5 1;
#X connect 7 1 4 0;
#X restore 455 124 pd V;
#X msg 508 250 \$1;
#X obj 338 381 outlet;
#X obj 471 38 inlet~;
#X obj 242 101 cnv 2 7 2 empty empty empty 20 12 0 14 -1 -66577 0;
#X obj 242 247 cnv 2 7 2 empty empty empty 20 12 0 14 -1 -66577 0;
#X connect 1 0 19 0;
#X connect 4 0 17 0;
#X connect 5 0 24 0;
#X connect 6 0 5 0;
#X connect 7 0 13 0;
#X connect 7 0 24 0;
#X connect 8 0 17 7;
#X connect 9 0 17 8;
#X connect 11 0 12 0;
#X connect 11 0 16 0;
#X connect 11 0 18 0;
#X connect 12 0 9 0;
#X connect 16 0 8 0;
#X connect 16 0 4 0;
#X connect 16 0 23 0;
#X connect 16 0 25 0;
#X connect 16 0 26 0;
#X connect 16 0 27 0;
#X connect 17 0 7 0;
#X connect 17 1 36 0;
#X connect 18 0 6 0;
#X connect 19 0 20 0;
#X connect 19 2 21 0;
#X connect 19 3 22 0;
#X connect 19 4 34 0;
#X connect 20 0 17 1;
#X connect 21 0 17 5;
#X connect 22 0 17 6;
#X connect 23 0 17 2;
#X connect 25 0 17 3;
#X connect 26 0 17 4;
#X connect 27 0 35 0;
#X connect 28 0 29 0;
#X connect 29 0 30 0;
#X connect 29 1 31 0;
#X connect 29 2 32 0;
#X connect 30 0 32 0;
#X connect 31 0 32 0;
#X connect 32 0 33 0;
#X connect 33 0 9 0;
#X connect 34 0 28 0;
#X connect 35 0 33 1;
#X connect 37 0 17 9;
#X coords 0 -1 1 1 150 150 2 100 100;
